<svg xmlns="http://www.w3.org/2000/svg">
    <symbol id="left">
        <path d="M10.8842 13.4793L19.7597 19.5374C20.1695 19.8173 20.5825 19.9655 20.9258 19.9655C21.5895 19.9655 22 19.4345 22 18.5456L22 5.45237C22 4.5645 21.59 4.03448 20.9279 4.03448C20.5841 4.03448 20.1777 4.18278 19.7669 4.46352L10.8873 10.5214C10.3162 10.9117 10 11.4368 10 12.0007C9.99987 12.5643 10.3125 13.0892 10.8842 13.4793Z" fill="#6B6B6B"/>
    </symbol>

    <symbol id="right">
        <path d="M21.1158 10.5207L12.2403 4.46262C11.8305 4.18266 11.4175 4.03448 11.0742 4.03448C10.4105 4.03448 10 4.56553 10 5.45444V18.5476C10 19.4355 10.41 19.9655 11.0721 19.9655C11.4159 19.9655 11.8223 19.8172 12.2331 19.5365L21.1127 13.4786C21.6838 13.0883 22 12.5632 22 11.9993C22.0001 11.4357 21.6875 10.9108 21.1158 10.5207Z" fill="#6B6B6B"/>
    </symbol>

    <symbol id="search" height="29" viewBox="0 0 20 20" fill="none">
        <path
            d="M17.78 16.7197L12.6613 11.601C13.6529 10.3763 14.2498 8.82 14.2498 7.12503C14.2498 3.19657 11.0534 9.15527e-05 7.1249 9.15527e-05C3.19644 9.15527e-05 0 3.19654 0 7.125C0 11.0535 3.19648 14.2499 7.12493 14.2499C8.8199 14.2499 10.3761 13.653 11.6009 12.6615L16.7196 17.7802C16.8658 17.9264 17.0578 17.9999 17.2498 17.9999C17.4418 17.9999 17.6338 17.9264 17.7801 17.7802C18.0733 17.4869 18.0733 17.0129 17.78 16.7197ZM7.12493 12.7499C4.02296 12.7499 1.5 10.227 1.5 7.125C1.5 4.02302 4.02296 1.50005 7.12493 1.50005C10.2269 1.50005 12.7499 4.02302 12.7499 7.125C12.7499 10.227 10.2269 12.7499 7.12493 12.7499Z"
            fill="#CFCFCF"
        />
    </symbol>
</svg>